<?xml version="1.0" encoding="UTF-8" standalone="no"?>
<svg xmlns:ffdec="https://www.free-decompiler.com/flash" xmlns:xlink="http://www.w3.org/1999/xlink" ffdec:objectType="shape" height="18.0px" width="14.0px" xmlns="http://www.w3.org/2000/svg">
  <g transform="matrix(1.0, 0.0, 0.0, 1.0, 7.0, 9.0)">
    <path d="M -3 -6 L 3 -6 L 3 6 L -3 6 Z M -5 -7 L 5 -7 L 5 -6 L -5 -6 Z M -4 -8 L 4 -8 L 5 -7 L -5 -7 Z M -5 6 L 5 6 L 5 7 L -5 7 Z M -6 7 L 6 7 L 6 8 L -6 8 Z M -1 -6 L -0.5 -6 L -0.5 6 L -1 6 Z M 0.5 -6 L 1 -6 L 1 6 L 0.5 6 Z" fill="#ffffff" fill-rule="evenodd" stroke="none"/>
  </g>
</svg>
