<?xml version="1.0" encoding="UTF-8" standalone="no"?>
<svg xmlns:ffdec="https://www.free-decompiler.com/flash" xmlns:xlink="http://www.w3.org/1999/xlink" ffdec:objectType="shape" height="16.0px" width="20.0px" xmlns="http://www.w3.org/2000/svg">
  <g transform="matrix(1.0, 0.0, 0.0, 1.0, 10.0, 8.5)">
    <path d="M -8 5 L -8 -1 L -6 -4 L -3 -6.5 L 0 -7.5 L 3 -6.5 L 6 -4 L 8 -1 L 8 5 L 6 5 L 6 -0.5 L 4.5 -3 L 2.5 -5 L 0 -5.8 L -2.5 -5 L -4.5 -3 L -6 -0.5 L -6 5 Z M -5 3 L 5 3 L 5 4 L -5 4 Z M -5 5 L 5 5 L 5 6 L -5 6 Z M -3 3 L -2 3 L -2 6 L -3 6 Z M 0 3 L 1 3 L 1 6 L 0 6 Z M 3 3 L 4 3 L 4 6 L 3 6 Z M -9 6 L 9 6 L 9 7 L -9 7 Z" fill="#ffffff" fill-rule="evenodd" stroke="none"/>
  </g>
</svg>
