<?xml version="1.0" encoding="UTF-8" standalone="no"?>
<svg xmlns:ffdec="https://www.free-decompiler.com/flash" xmlns:xlink="http://www.w3.org/1999/xlink" ffdec:objectType="shape" height="18.0px" width="18.0px" xmlns="http://www.w3.org/2000/svg">
  <g transform="matrix(1.0, 0.0, 0.0, 1.0, 9.0, 9.0)">
    <path d="M -6 -7 L -3 -7 L -3 -4 L -1 -2 L 5 4 L 7 4 L 8 5 L 8 7 L 6 8 L 4 8 L 3 7 L 3 5 L -3 -1 L -6 -1 Z M -5 -6 L -4 -6 L -4 -2 L -5 -2 Z M -2.0 4.0 L -2.88 6.12 L -5.0 7.0 L -7.12 6.12 L -8.0 4.0 L -7.12 1.88 L -5.0 1.0 L -2.88 1.88 Z M -3.5 4.0 L -4.25 5.3 L -5.75 5.3 L -6.5 4.0 L -5.75 2.7 L -4.25 2.7 Z" fill="#ffffff" fill-rule="evenodd" stroke="none"/>
  </g>
</svg>
