<?xml version="1.0" encoding="UTF-8" standalone="no"?>
<svg xmlns:ffdec="https://www.free-decompiler.com/flash" xmlns:xlink="http://www.w3.org/1999/xlink" ffdec:objectType="shape" height="16.0px" width="16.0px" xmlns="http://www.w3.org/2000/svg">
  <g transform="matrix(1.0, 0.0, 0.0, 1.0, 8.0, 8.0)">
    <path d="M -5 -6 L -2 -6 L -2 -3 L 0 -1 L 5 4 L 6 3.5 L 7 5 L 5 7 L 3 6 L 3.5 5 L -2 -0.5 L -5 -0.5 Z M -2.0 3.5 L -2.73 5.27 L -4.5 6.0 L -6.27 5.27 L -7.0 3.5 L -6.27 1.73 L -4.5 1.0 L -2.73 1.73 Z M -3.3 3.5 L -3.9 4.54 L -5.1 4.54 L -5.7 3.5 L -5.1 2.46 L -3.9 2.46 Z" fill="#ffffff" fill-rule="evenodd" stroke="none"/>
  </g>
</svg>
