<?xml version="1.0" encoding="UTF-8" standalone="no"?>
<svg xmlns:ffdec="https://www.free-decompiler.com/flash" xmlns:xlink="http://www.w3.org/1999/xlink" ffdec:objectType="shape" height="20.0px" width="20.0px" xmlns="http://www.w3.org/2000/svg">
  <g transform="matrix(1.0, 0.0, 0.0, 1.0, 10.0, 10.0)">
    <path d="M -8 0 L 8 0 L 8 8 L -8 8 Z M -7 -7 L -5 -7 L -5 0 L -7 0 Z M -2 -5 L 0 -5 L 0 0 L -2 0 Z M -7.5 -8.5 L -4.5 -8.5 L -4.5 -7.5 L -7.5 -7.5 Z M 2 -3 L 5 0 L 2 0 Z M 5 -3 L 8 0 L 5 0 Z M -6.5 2 L -3.5 2 L -3.5 4 L -6.5 4 Z M 3 2 L 7 2 L 7 4 L 3 4 Z M -1.5 4 L 1.5 4 L 1.5 8 L -1.5 8 Z M -9 8 L 9 8 L 9 9 L -9 9 Z" fill="#ffffff" fill-rule="evenodd" stroke="none"/>
  </g>
</svg>
