<?xml version="1.0" encoding="UTF-8" standalone="no"?>
<svg xmlns:ffdec="https://www.free-decompiler.com/flash" xmlns:xlink="http://www.w3.org/1999/xlink" ffdec:objectType="shape" height="15.0px" width="20.0px" xmlns="http://www.w3.org/2000/svg">
  <g transform="matrix(1.0, 0.0, 0.0, 1.0, 10.0, 9.0)">
    <path d="M -8 4 L -8 0 L -6 -3 L -3 -5.5 L 0 -6.5 L 3 -5.5 L 6 -3 L 8 0 L 8 4 Z M -6 4 L -6 0.5 L -4.5 -2 L -2 -4 L 0 -4.8 L 2 -4 L 4.5 -2 L 6 0.5 L 6 4 Z M -1 -8 L 1 -8 L 1 -6.5 L -1 -6.5 Z M -9 4 L 9 4 L 9 5 L -9 5 Z" fill="#ffffff" fill-rule="evenodd" stroke="none"/>
  </g>
</svg>
