<?xml version="1.0" encoding="UTF-8" standalone="no"?>
<svg xmlns:ffdec="https://www.free-decompiler.com/flash" xmlns:xlink="http://www.w3.org/1999/xlink" ffdec:objectType="shape" height="12.0px" width="12.0px" xmlns="http://www.w3.org/2000/svg">
  <g transform="matrix(1.0, 0.0, 0.0, 1.0, 6.0, 6.0)">
    <path d="M 5.0 0.0 L 4.33 2.5 L 2.5 4.33 L 0.0 5.0 L -2.5 4.33 L -4.33 2.5 L -5.0 0.0 L -4.33 -2.5 L -2.5 -4.33 L -0.0 -5.0 L 2.5 -4.33 L 4.33 -2.5 Z M 3.0 0.0 L 2.43 1.76 L 0.93 2.85 L -0.93 2.85 L -2.43 1.76 L -3.0 0.0 L -2.43 -1.76 L -0.93 -2.85 L 0.93 -2.85 L 2.43 -1.76 Z M 1.5 0.0 L 0.75 1.3 L -0.75 1.3 L -1.5 0.0 L -0.75 -1.3 L 0.75 -1.3 Z" fill="#ffffff" fill-rule="evenodd" stroke="none"/>
  </g>
</svg>
