<?xml version="1.0" encoding="UTF-8" standalone="no"?>
<svg xmlns:ffdec="https://www.free-decompiler.com/flash" xmlns:xlink="http://www.w3.org/1999/xlink" ffdec:objectType="shape" height="19.0px" width="18.0px" xmlns="http://www.w3.org/2000/svg">
  <g transform="matrix(1.0, 0.0, 0.0, 1.0, 9.0, 9.5)">
    <path d="M -7 -2 L 7 -2 L 7 8 L -7 8 Z M -2 -8 L 2 -8 L 2 -2 L -2 -2 Z M -5 -6 L 5 -6 L 5 -4 L -5 -4 Z M -1.5 4 L 1.5 4 L 1.5 8 L -1.5 8 Z M -6 0 L -3.5 0 L -3.5 2.5 L -6 2.5 Z M 3.5 0 L 6 0 L 6 2.5 L 3.5 2.5 Z M -8 8 L 8 8 L 8 9 L -8 9 Z" fill="#ffffff" fill-rule="evenodd" stroke="none"/>
  </g>
</svg>
