<?xml version="1.0" encoding="UTF-8" standalone="no"?>
<svg xmlns:ffdec="https://www.free-decompiler.com/flash" xmlns:xlink="http://www.w3.org/1999/xlink" ffdec:objectType="shape" height="19.0px" width="14.0px" xmlns="http://www.w3.org/2000/svg">
  <g transform="matrix(1.0, 0.0, 0.0, 1.0, 7.0, 10.0)">
    <path d="M -4 -5 L -4 -7 L -2 -9 L 2 -9 L 4 -7 L 4 -5 L 4 7 L -4 7 Z M -1.5 -7 L 1.5 -7 L 1.5 -4 L 3 -4 L 3 -2 L 1.5 -2 L 1.5 2 L -1.5 2 L -1.5 -2 L -3 -2 L -3 -4 L -1.5 -4 Z M -6 6 L -4 4 L 0 3 L 4 4 L 6 6 L 6 8 L -6 8 Z" fill="#ffffff" fill-rule="evenodd" stroke="none"/>
  </g>
</svg>
