<?xml version="1.0" encoding="UTF-8" standalone="no"?>
<svg xmlns:ffdec="https://www.free-decompiler.com/flash" xmlns:xlink="http://www.w3.org/1999/xlink" ffdec:objectType="shape" height="19.0px" width="19.0px" xmlns="http://www.w3.org/2000/svg">
  <g transform="matrix(1.0, 0.0, 0.0, 1.0, 9.5, 9.5)">
    <path d="M 8.5 0.0 L 8.08 2.63 L 6.88 5.0 L 5.0 6.88 L 2.63 8.08 L 0.0 8.5 L -2.63 8.08 L -5.0 6.88 L -6.88 5.0 L -8.08 2.63 L -8.5 0.0 L -8.08 -2.63 L -6.88 -5.0 L -5.0 -6.88 L -2.63 -8.08 L -0.0 -8.5 L 2.63 -8.08 L 5.0 -6.88 L 6.88 -5.0 L 8.08 -2.63 Z M 6.5 0.0 L 6.01 2.49 L 4.6 4.6 L 2.49 6.01 L 0.0 6.5 L -2.49 6.01 L -4.6 4.6 L -6.01 2.49 L -6.5 0.0 L -6.01 -2.49 L -4.6 -4.6 L -2.49 -6.01 L -0.0 -6.5 L 2.49 -6.01 L 4.6 -4.6 L 6.01 -2.49 Z M 0.0 -5.0 L 1.18 -1.62 L 4.76 -1.55 L 1.9 0.62 L 2.94 4.05 L 0.0 2.0 L -2.94 4.05 L -1.9 0.62 L -4.76 -1.55 L -1.18 -1.62 L 0.0 -5.0" fill="#ffffff" fill-rule="evenodd" stroke="none"/>
  </g>
</svg>
