<?xml version="1.0" encoding="UTF-8" standalone="no"?>
<svg xmlns:ffdec="https://www.free-decompiler.com/flash" xmlns:xlink="http://www.w3.org/1999/xlink" ffdec:objectType="shape" height="17.0px" width="17.0px" xmlns="http://www.w3.org/2000/svg">
  <g transform="matrix(1.0, 0.0, 0.0, 1.0, 8.5, 8.5)">
    <path d="M 7.5 0.0 L 7.05 2.57 L 5.75 4.82 L 3.75 6.5 L 1.3 7.39 L -1.3 7.39 L -3.75 6.5 L -5.75 4.82 L -7.05 2.57 L -7.5 0.0 L -7.05 -2.57 L -5.75 -4.82 L -3.75 -6.5 L -1.3 -7.39 L 1.3 -7.39 L 3.75 -6.5 L 5.75 -4.82 L 7.05 -2.57 Z M 5.5 0.0 L 4.96 2.39 L 3.43 4.3 L 1.22 5.36 L -1.22 5.36 L -3.43 4.3 L -4.96 2.39 L -5.5 0.0 L -4.96 -2.39 L -3.43 -4.3 L -1.22 -5.36 L 1.22 -5.36 L 3.43 -4.3 L 4.96 -2.39 Z M 0.0 -4.0 L 0.94 -1.29 L 3.8 -1.24 L 1.52 0.49 L 2.35 3.24 L 0.0 1.6 L -2.35 3.24 L -1.52 0.49 L -3.8 -1.24 L -0.94 -1.29 L 0.0 -4.0" fill="#ffffff" fill-rule="evenodd" stroke="none"/>
  </g>
</svg>
