<?xml version="1.0" encoding="UTF-8" standalone="no"?>
<svg xmlns:ffdec="https://www.free-decompiler.com/flash" xmlns:xlink="http://www.w3.org/1999/xlink" ffdec:objectType="shape" height="19.0px" width="19.0px" xmlns="http://www.w3.org/2000/svg">
  <g transform="matrix(1.0, 0.0, 0.0, 1.0, 9.5, 9.5)">
    <path d="M -8 -2 L -4 -2 L -4 8 L -8 8 Z M -3 2 L 2 2 L 2 8 L -3 8 Z M 3 -5 L 7 -5 L 7 8 L 3 8 Z M 4.5 -8 L 5.5 -8 L 5.5 -5 L 4.5 -5 Z M -7 -0.5 L -5.5 -0.5 L -5.5 1 L -7 1 Z M -7 2.5 L -5.5 2.5 L -5.5 4 L -7 4 Z M 4 -3.5 L 6 -3.5 L 6 -2 L 4 -2 Z M 4 -0.5 L 6 -0.5 L 6 1 L 4 1 Z M -9 8 L 8 8 L 8 9 L -9 9 Z" fill="#ffffff" fill-rule="evenodd" stroke="none"/>
  </g>
</svg>
