<?xml version="1.0" encoding="UTF-8" standalone="no"?>
<svg xmlns:ffdec="https://www.free-decompiler.com/flash" xmlns:xlink="http://www.w3.org/1999/xlink" ffdec:objectType="shape" height="21.0px" width="12.0px" xmlns="http://www.w3.org/2000/svg">
  <g transform="matrix(1.0, 0.0, 0.0, 1.0, 6.0, 10.5)">
    <path d="M -4 -9 L 4 -9 L 4 8 L -4 8 Z M 0 -10 L 1 -10 L 1 -9 L 0 -9 Z M -3 -7 L -1 -7 L -1 -5.5 L -3 -5.5 Z M 1 -7 L 3 -7 L 3 -5.5 L 1 -5.5 Z M -3 -4 L -1 -4 L -1 -2.5 L -3 -2.5 Z M 1 -4 L 3 -4 L 3 -2.5 L 1 -2.5 Z M -3 -1 L -1 -1 L -1 0.5 L -3 0.5 Z M 1 -1 L 3 -1 L 3 0.5 L 1 0.5 Z M -3 2 L -1 2 L -1 3.5 L -3 3.5 Z M 1 2 L 3 2 L 3 3.5 L 1 3.5 Z M -1 5 L 1 5 L 1 8 L -1 8 Z M -5 8 L 5 8 L 5 9.5 L -5 9.5 Z" fill="#ffffff" fill-rule="evenodd" stroke="none"/>
  </g>
</svg>
