<?xml version="1.0" encoding="UTF-8" standalone="no"?>
<svg xmlns:ffdec="https://www.free-decompiler.com/flash" xmlns:xlink="http://www.w3.org/1999/xlink" ffdec:objectType="shape" height="21.0px" width="20.0px" xmlns="http://www.w3.org/2000/svg">
  <g transform="matrix(1.0, 0.0, 0.0, 1.0, 10.0, 10.5)">
    <path d="M -8 -6 L -5 -6 L -5 8 L -8 8 Z M -4 -2 L -1 -2 L -1 8 L -4 8 Z M 0 -8 L 3 -8 L 3 8 L 0 8 Z M 4 0 L 8 0 L 8 8 L 4 8 Z M 1 -9.5 L 2 -9.5 L 2 -8 L 1 -8 Z M 0.5 -6 L 2.5 -6 L 2.5 -5 L 0.5 -5 Z M 0.5 -3.5 L 2.5 -3.5 L 2.5 -2.5 L 0.5 -2.5 Z M 0.5 -1 L 2.5 -1 L 2.5 0 L 0.5 0 Z M -9 8 L 9 8 L 9 9.5 L -9 9.5 Z" fill="#ffffff" fill-rule="evenodd" stroke="none"/>
  </g>
</svg>
