<?xml version="1.0" encoding="UTF-8" standalone="no"?>
<svg xmlns:ffdec="https://www.free-decompiler.com/flash" xmlns:xlink="http://www.w3.org/1999/xlink" ffdec:objectType="shape" height="20.0px" width="16.0px" xmlns="http://www.w3.org/2000/svg">
  <g transform="matrix(1.0, 0.0, 0.0, 1.0, 8.0, 10.0)">
    <path d="M -6 -1 L 6 -1 L 6 8 L -6 8 Z M -2 -1 L 0 -6 L 2 -1 Z M -0.75 -9 L 0.75 -9 L 0.75 -7 L 2 -7 L 2 -5.5 L 0.75 -5.5 L 0.75 -4 L -0.75 -4 L -0.75 -5.5 L -2 -5.5 L -2 -7 L -0.75 -7 Z M -1.5 4 L 1.5 4 L 1.5 8 L -1.5 8 Z M -5 1 L -3 1 L -3 3.5 L -5 3.5 Z M 3 1 L 5 1 L 5 3.5 L 3 3.5 Z M -7 8 L 7 8 L 7 9 L -7 9 Z" fill="#ffffff" fill-rule="evenodd" stroke="none"/>
  </g>
</svg>
