<?xml version="1.0" encoding="UTF-8" standalone="no"?>
<svg xmlns:ffdec="https://www.free-decompiler.com/flash" xmlns:xlink="http://www.w3.org/1999/xlink" ffdec:objectType="shape" height="15.0px" width="20.0px" xmlns="http://www.w3.org/2000/svg">
  <g transform="matrix(1.0, 0.0, 0.0, 1.0, 10.0, 8.0)">
    <path d="M -9 5 L -7 -1 L -5 -4 L -2 -6 L 0 -7 L 2 -6 L 5 -4 L 7 -1 L 9 5 L 6 5 L 5 1 L 3 -2 L 0 -3.5 L -3 -2 L -5 1 L -6 5 Z M -2 -3 L -1.5 -1 L -1 -3 Z M 1 -3 L 1.5 -0.5 L 2 -3 Z M -9 5 L 9 5 L 9 6 L -9 6 Z" fill="#ffffff" fill-rule="evenodd" stroke="none"/>
  </g>
</svg>
