<?xml version="1.0" encoding="UTF-8" standalone="no"?>
<svg xmlns:ffdec="https://www.free-decompiler.com/flash" xmlns:xlink="http://www.w3.org/1999/xlink" ffdec:objectType="shape" height="15.0px" width="18.0px" xmlns="http://www.w3.org/2000/svg">
  <g transform="matrix(1.0, 0.0, 0.0, 1.0, 9.0, 7.0)">
    <path d="M -7 -1 L 7 -1 L 7 8 L -7 8 Z M -7 -4 L -5 -4 L -5 -1 L -3 -1 L -3 -4 L -1 -4 L -1 -1 L 1 -1 L 1 -4 L 3 -4 L 3 -1 L 5 -1 L 5 -4 L 7 -4 L 7 -1 L -7 -1 Z M -2 3 L -2 0 L 2 0 L 2 3 L 2 8 L -2 8 Z M -2 0 L 0 -2 L 2 0 Z M -8 8 L 8 8 L 8 9 L -8 9 Z" fill="#ffffff" fill-rule="evenodd" stroke="none"/>
  </g>
</svg>
