<?xml version="1.0" encoding="UTF-8" standalone="no"?>
<svg xmlns:ffdec="https://www.free-decompiler.com/flash" xmlns:xlink="http://www.w3.org/1999/xlink" ffdec:objectType="shape" height="14.0px" width="18.0px" xmlns="http://www.w3.org/2000/svg">
  <g transform="matrix(1.0, 0.0, 0.0, 1.0, 9.0, 7.0)">
    <path d="M -8 0 L -5 0 L -4 -3 L 3 -3 L 5 0 L 8 0 L 8 3 L -8 3 Z M -3 -3 L -2 -6 L 3 -6 L 4 -3 Z M -3.0 4.0 L -3.59 5.41 L -5.0 6.0 L -6.41 5.41 L -7.0 4.0 L -6.41 2.59 L -5.0 2.0 L -3.59 2.59 Z M 7.0 4.0 L 6.41 5.41 L 5.0 6.0 L 3.59 5.41 L 3.0 4.0 L 3.59 2.59 L 5.0 2.0 L 6.41 2.59 Z M -8 3 L 8 3 L 8 4 L -8 4 Z" fill="#ffffff" fill-rule="evenodd" stroke="none"/>
  </g>
</svg>
