<?xml version="1.0" encoding="UTF-8" standalone="no"?>
<svg xmlns:ffdec="https://www.free-decompiler.com/flash" xmlns:xlink="http://www.w3.org/1999/xlink" ffdec:objectType="shape" height="12.0px" width="16.0px" xmlns="http://www.w3.org/2000/svg">
  <g transform="matrix(1.0, 0.0, 0.0, 1.0, 8.0, 6.0)">
    <path d="M -7 0 L -4 0 L -3 -2.5 L 3 -2.5 L 4 0 L 7 0 L 7 2.5 L -7 2.5 Z M -2.5 -2.5 L -1.5 -5 L 3 -5 L 3.5 -2.5 Z M -3.0 3.5 L -3.44 4.56 L -4.5 5.0 L -5.56 4.56 L -6.0 3.5 L -5.56 2.44 L -4.5 2.0 L -3.44 2.44 Z M 6.0 3.5 L 5.56 4.56 L 4.5 5.0 L 3.44 4.56 L 3.0 3.5 L 3.44 2.44 L 4.5 2.0 L 5.56 2.44 Z" fill="#ffffff" fill-rule="evenodd" stroke="none"/>
  </g>
</svg>
