<?xml version="1.0" encoding="UTF-8" standalone="no"?>
<svg xmlns:ffdec="https://www.free-decompiler.com/flash" xmlns:xlink="http://www.w3.org/1999/xlink" ffdec:objectType="shape" height="14.0px" width="18.0px" xmlns="http://www.w3.org/2000/svg">
  <g transform="matrix(1.0, 0.0, 0.0, 1.0, 9.0, 6.0)">
    <path d="M -7 -3 L 7 -3 L 7 8 L -7 8 Z M -8 -3 L 8 -3 L 8 -2 L -8 -2 Z M -2 6 L 2 6 L 2 8 L -2 8 Z M -3 7 L 3 7 L 3 8 L -3 8 Z M -5.5 -1 L -3.5 -1 L -3.5 1 L -5.5 1 Z M -1 -1 L 1 -1 L 1 1 L -1 1 Z M 3.5 -1 L 5.5 -1 L 5.5 1 L 3.5 1 Z M -5.5 3 L -3.5 3 L -3.5 5 L -5.5 5 Z M 3.5 3 L 5.5 3 L 5.5 5 L 3.5 5 Z M -8 8 L 8 8 L 8 9 L -8 9 Z" fill="#ffffff" fill-rule="evenodd" stroke="none"/>
  </g>
</svg>
