<?xml version="1.0" encoding="UTF-8" standalone="no"?>
<svg xmlns:ffdec="https://www.free-decompiler.com/flash" xmlns:xlink="http://www.w3.org/1999/xlink" ffdec:objectType="shape" height="18.0px" width="18.0px" xmlns="http://www.w3.org/2000/svg">
  <g transform="matrix(1.0, 0.0, 0.0, 1.0, 9.0, 9.0)">
    <path d="M 8.0 0.0 L 7.61 2.47 L 6.47 4.7 L 4.7 6.47 L 2.47 7.61 L 0.0 8.0 L -2.47 7.61 L -4.7 6.47 L -6.47 4.7 L -7.61 2.47 L -8.0 0.0 L -7.61 -2.47 L -6.47 -4.7 L -4.7 -6.47 L -2.47 -7.61 L -0.0 -8.0 L 2.47 -7.61 L 4.7 -6.47 L 6.47 -4.7 L 7.61 -2.47 Z M 5.5 0.0 L 5.08 2.1 L 3.89 3.89 L 2.1 5.08 L 0.0 5.5 L -2.1 5.08 L -3.89 3.89 L -5.08 2.1 L -5.5 0.0 L -5.08 -2.1 L -3.89 -3.89 L -2.1 -5.08 L -0.0 -5.5 L 2.1 -5.08 L 3.89 -3.89 L 5.08 -2.1 Z M -8 -1 L 8 -1 L 8 1 L -8 1 Z M -1 -8 L 1 -8 L 1 8 L -1 8 Z" fill="#ffffff" fill-rule="evenodd" stroke="none"/>
  </g>
</svg>
