<?xml version="1.0" encoding="UTF-8" standalone="no"?>
<svg xmlns:ffdec="https://www.free-decompiler.com/flash" xmlns:xlink="http://www.w3.org/1999/xlink" ffdec:objectType="shape" height="16.0px" width="16.0px" xmlns="http://www.w3.org/2000/svg">
  <g transform="matrix(1.0, 0.0, 0.0, 1.0, 8.0, 8.0)">
    <path d="M 7.0 0.0 L 6.47 2.68 L 4.95 4.95 L 2.68 6.47 L 0.0 7.0 L -2.68 6.47 L -4.95 4.95 L -6.47 2.68 L -7.0 0.0 L -6.47 -2.68 L -4.95 -4.95 L -2.68 -6.47 L -0.0 -7.0 L 2.68 -6.47 L 4.95 -4.95 L 6.47 -2.68 Z M 5.0 0.0 L 4.5 2.17 L 3.12 3.91 L 1.11 4.87 L -1.11 4.87 L -3.12 3.91 L -4.5 2.17 L -5.0 0.0 L -4.5 -2.17 L -3.12 -3.91 L -1.11 -4.87 L 1.11 -4.87 L 3.12 -3.91 L 4.5 -2.17 Z M -7 -0.75 L 7 -0.75 L 7 0.75 L -7 0.75 Z M -0.75 -7 L 0.75 -7 L 0.75 7 L -0.75 7 Z" fill="#ffffff" fill-rule="evenodd" stroke="none"/>
  </g>
</svg>
