<?xml version="1.0" encoding="UTF-8" standalone="no"?>
<svg xmlns:ffdec="https://www.free-decompiler.com/flash" xmlns:xlink="http://www.w3.org/1999/xlink" ffdec:objectType="shape" height="19.0px" width="19.0px" xmlns="http://www.w3.org/2000/svg">
  <g transform="matrix(1.0, 0.0, 0.0, 1.0, 9.5, 9.5)">
    <!-- Vault Discovered: Military bunker crosshair - circle + cross -->
    <path d="M0.0 -2.0 Q-0.85 -2.0 -1.4 -1.4 -2.0 -0.85 -2.0 0.0 -2.0 0.85 -1.4 1.4 -0.85 2.0 0.0 2.0 0.85 2.0 1.4 1.4 2.0 0.85 2.0 0.0 2.0 -0.85 1.4 -1.4 0.85 -2.0 0.0 -2.0 M0.0 -9.5 Q3.95 -9.5 6.7 -6.7 9.5 -3.95 9.5 0.0 9.5 3.95 6.7 6.7 3.95 9.5 0.0 9.5 -3.95 9.5 -6.7 6.7 -9.5 3.95 -9.5 0.0 -9.5 -3.95 -6.7 -6.7 -3.95 -9.5 0.0 -9.5 M0.0 -7.5 Q-3.1 -7.5 -5.3 -5.3 -7.5 -3.1 -7.5 0.0 -7.5 3.1 -5.3 5.3 -3.1 7.5 0.0 7.5 3.1 7.5 5.3 5.3 7.5 3.1 7.5 0.0 7.5 -3.1 5.3 -5.3 3.1 -7.5 0.0 -7.5 M-0.5 -9.5 L0.5 -9.5 0.5 -3.0 -0.5 -3.0 -0.5 -9.5 M-0.5 3.0 L0.5 3.0 0.5 9.5 -0.5 9.5 -0.5 3.0 M-9.5 -0.5 L-3.0 -0.5 -3.0 0.5 -9.5 0.5 -9.5 -0.5 M3.0 -0.5 L9.5 -0.5 9.5 0.5 3.0 0.5 3.0 -0.5" fill="#ffffff" fill-rule="evenodd" stroke="none"/>
  </g>
</svg>
