<?xml version="1.0" encoding="UTF-8" standalone="no"?>
<svg xmlns:ffdec="https://www.free-decompiler.com/flash" xmlns:xlink="http://www.w3.org/1999/xlink" ffdec:objectType="shape" height="19.0px" width="16.0px" xmlns="http://www.w3.org/2000/svg">
  <g transform="matrix(1.0, 0.0, 0.0, 1.0, 8.0, 9.5)">
    <path d="M -6 0 L 6 0 L 6 8 L -6 8 Z M -7 0 L 0 -6 L 7 0 Z M -1.5 4 L 1.5 4 L 1.5 8 L -1.5 8 Z M -5 2 L -3 2 L -3 4 L -5 4 Z M 3 2 L 5 2 L 5 4 L 3 4 Z M -0.5 -8 L 0.5 -8 L 0.5 -4 L -0.5 -4 Z M 0.5 -8 L 3.5 -7 L 0.5 -6 Z M -7 8 L 7 8 L 7 9 L -7 9 Z" fill="#ffffff" fill-rule="evenodd" stroke="none"/>
  </g>
</svg>
