<?xml version="1.0" encoding="UTF-8" standalone="no"?>
<svg xmlns:ffdec="https://www.free-decompiler.com/flash" xmlns:xlink="http://www.w3.org/1999/xlink" ffdec:objectType="shape" height="20.0px" width="20.0px" xmlns="http://www.w3.org/2000/svg">
  <g transform="matrix(1.0, 0.0, 0.0, 1.0, 10.0, 10.0)">
    <path d="M -0.75 -9 L 0.75 -9 L 3 8 L 1 8 L 0.75 6 L -0.75 6 L -1 8 L -3 8 Z M -1.5 -3 L 1.5 -3 L 1.5 -2 L -1.5 -2 Z M -2 2 L 2 2 L 2 3 L -2 3 Z M -4 -7 L -5 -8 L -6.5 -6 L -5 -4 L -4 -5 L -5 -6 Z M -6 -8.5 L -7 -9 L -9 -6 L -7 -3 L -6 -4 L -7.5 -6 Z M 4 -7 L 5 -8 L 6.5 -6 L 5 -4 L 4 -5 L 5 -6 Z M 6 -8.5 L 7 -9 L 9 -6 L 7 -3 L 6 -4 L 7.5 -6 Z M -4 7 L 4 7 L 4 9 L -4 9 Z" fill="#ffffff" fill-rule="evenodd" stroke="none"/>
  </g>
</svg>
