<?xml version="1.0" encoding="UTF-8" standalone="no"?>
<svg xmlns:ffdec="https://www.free-decompiler.com/flash" xmlns:xlink="http://www.w3.org/1999/xlink" ffdec:objectType="shape" height="20.0px" width="20.0px" xmlns="http://www.w3.org/2000/svg">
  <g transform="matrix(1.0, 0.0, 0.0, 1.0, 10.0, 10.0)">
    <path d="M 2.0 0.0 L 1.41 1.41 L 0.0 2.0 L -1.41 1.41 L -2.0 0.0 L -1.41 -1.41 L -0.0 -2.0 L 1.41 -1.41 Z M -2 -3 L 0 -8.5 L 2 -3 Z M -3 1.5 L -8 -1.5 L -4 -4 Z M 3 1.5 L 8 -1.5 L 4 -4 Z M 9.0 -1.0 L 8.56 1.78 L 7.28 4.29 L 5.29 6.28 L 2.78 7.56 L 0.0 8.0 L -2.78 7.56 L -5.29 6.28 L -7.28 4.29 L -8.56 1.78 L -9.0 -1.0 L -8.56 -3.78 L -7.28 -6.29 L -5.29 -8.28 L -2.78 -9.56 L -0.0 -10.0 L 2.78 -9.56 L 5.29 -8.28 L 7.28 -6.29 L 8.56 -3.78 Z M 7.5 -1.0 L 7.05 1.57 L 5.75 3.82 L 3.75 5.5 L 1.3 6.39 L -1.3 6.39 L -3.75 5.5 L -5.75 3.82 L -7.05 1.57 L -7.5 -1.0 L -7.05 -3.57 L -5.75 -5.82 L -3.75 -7.5 L -1.3 -8.39 L 1.3 -8.39 L 3.75 -7.5 L 5.75 -5.82 L 7.05 -3.57 Z" fill="#ffffff" fill-rule="evenodd" stroke="none"/>
  </g>
</svg>
