<?xml version="1.0" encoding="UTF-8" standalone="no"?>
<svg xmlns:ffdec="https://www.free-decompiler.com/flash" xmlns:xlink="http://www.w3.org/1999/xlink" ffdec:objectType="shape" height="18.0px" width="18.0px" xmlns="http://www.w3.org/2000/svg">
  <g transform="matrix(1.0, 0.0, 0.0, 1.0, 9.0, 9.0)">
    <path d="M 1.5 0.0 L 1.06 1.06 L 0.0 1.5 L -1.06 1.06 L -1.5 0.0 L -1.06 -1.06 L -0.0 -1.5 L 1.06 -1.06 Z M -1.5 -2.5 L 0 -7 L 1.5 -2.5 Z M -2.5 1 L -6.5 -1 L -3.5 -3 Z M 2.5 1 L 6.5 -1 L 3.5 -3 Z M 8.0 -0.5 L 7.52 2.24 L 6.13 4.64 L 4.0 6.43 L 1.39 7.38 L -1.39 7.38 L -4.0 6.43 L -6.13 4.64 L -7.52 2.24 L -8.0 -0.5 L -7.52 -3.24 L -6.13 -5.64 L -4.0 -7.43 L -1.39 -8.38 L 1.39 -8.38 L 4.0 -7.43 L 6.13 -5.64 L 7.52 -3.24 Z M 6.5 -0.5 L 6.01 1.99 L 4.6 4.1 L 2.49 5.51 L 0.0 6.0 L -2.49 5.51 L -4.6 4.1 L -6.01 1.99 L -6.5 -0.5 L -6.01 -2.99 L -4.6 -5.1 L -2.49 -6.51 L -0.0 -7.0 L 2.49 -6.51 L 4.6 -5.1 L 6.01 -2.99 Z" fill="#ffffff" fill-rule="evenodd" stroke="none"/>
  </g>
</svg>
