<?xml version="1.0" encoding="UTF-8" standalone="no"?>
<svg xmlns:ffdec="https://www.free-decompiler.com/flash" xmlns:xlink="http://www.w3.org/1999/xlink" ffdec:objectType="shape" height="16.0px" width="18.0px" xmlns="http://www.w3.org/2000/svg">
  <g transform="matrix(1.0, 0.0, 0.0, 1.0, 9.0, 8.0)">
    <path d="M -8 -4 L -5 -6 L -2 -4 L 1 -6 L 4 -4 L 7 -6 L 8 -5 L 5 -3 L 2 -5 L -1 -3 L -4 -5 L -7 -3 Z M -8 1 L -5 -1 L -2 1 L 1 -1 L 4 1 L 7 -1 L 8 0 L 5 2 L 2 0 L -1 2 L -4 0 L -7 2 Z M -8 6 L -5 4 L -2 6 L 1 4 L 4 6 L 7 4 L 8 5 L 5 7 L 2 5 L -1 7 L -4 5 L -7 7 Z" fill="#ffffff" fill-rule="evenodd" stroke="none"/>
  </g>
</svg>
