<?xml version="1.0" encoding="UTF-8" standalone="no"?>
<svg xmlns:ffdec="https://www.free-decompiler.com/flash" xmlns:xlink="http://www.w3.org/1999/xlink" ffdec:objectType="shape" height="18.0px" width="16.0px" xmlns="http://www.w3.org/2000/svg">
  <g transform="matrix(1.0, 0.0, 0.0, 1.0, 8.0, 9.0)">
    <path d="M 0 -8 L 7 -5 L 7 1 L 4 5 L 0 8 L -4 5 L -7 1 L -7 -5 Z M 0 -6 L 5.5 -3.5 L 5.5 0.5 L 3 4 L 0 6.5 L -3 4 L -5.5 0.5 L -5.5 -3.5 Z M 0.0 -4.0 L 0.82 -1.63 L 3.33 -1.58 L 1.33 -0.07 L 2.06 2.33 L 0.0 0.9 L -2.06 2.33 L -1.33 -0.07 L -3.33 -1.58 L -0.82 -1.63 L 0.0 -4.0" fill="#ffffff" fill-rule="evenodd" stroke="none"/>
  </g>
</svg>
