<?xml version="1.0" encoding="UTF-8" standalone="no"?>
<svg xmlns:ffdec="https://www.free-decompiler.com/flash" xmlns:xlink="http://www.w3.org/1999/xlink" ffdec:objectType="shape" height="16.0px" width="14.0px" xmlns="http://www.w3.org/2000/svg">
  <g transform="matrix(1.0, 0.0, 0.0, 1.0, 7.0, 8.0)">
    <path d="M 0 -7 L 6 -4 L 6 1 L 3.5 4.5 L 0 7 L -3.5 4.5 L -6 1 L -6 -4 Z M 0 -5.5 L 4.5 -3 L 4.5 0.5 L 2.5 3.5 L 0 5.5 L -2.5 3.5 L -4.5 0.5 L -4.5 -3 Z M 0.0 -3.5 L 0.71 -1.47 L 2.85 -1.43 L 1.14 -0.13 L 1.76 1.93 L 0.0 0.7 L -1.76 1.93 L -1.14 -0.13 L -2.85 -1.43 L -0.71 -1.47 L 0.0 -3.5" fill="#ffffff" fill-rule="evenodd" stroke="none"/>
  </g>
</svg>
