<?xml version="1.0" encoding="UTF-8" standalone="no"?>
<svg xmlns:ffdec="https://www.free-decompiler.com/flash" xmlns:xlink="http://www.w3.org/1999/xlink" ffdec:objectType="shape" height="19.0px" width="14.0px" xmlns="http://www.w3.org/2000/svg">
  <g transform="matrix(1.0, 0.0, 0.0, 1.0, 7.0, 9.5)">
    <path d="M 2.5 -6.5 L 2.17 -5.25 L 1.25 -4.33 L 0.0 -4.0 L -1.25 -4.33 L -2.17 -5.25 L -2.5 -6.5 L -2.17 -7.75 L -1.25 -8.67 L -0.0 -9.0 L 1.25 -8.67 L 2.17 -7.75 Z M 1.2 -6.5 L 0.97 -5.79 L 0.37 -5.36 L -0.37 -5.36 L -0.97 -5.79 L -1.2 -6.5 L -0.97 -7.21 L -0.37 -7.64 L 0.37 -7.64 L 0.97 -7.21 Z M -1 -4 L 1 -4 L 1 5 L -1 5 Z M -5 -2 L 5 -2 L 5 -0.5 L -5 -0.5 Z M -6 7 L -5 5 L -1 5 L -1 7 L -3 8 Z M 6 7 L 5 5 L 1 5 L 1 7 L 3 8 Z" fill="#ffffff" fill-rule="evenodd" stroke="none"/>
  </g>
</svg>
