<?xml version="1.0" encoding="UTF-8" standalone="no"?>
<svg xmlns:ffdec="https://www.free-decompiler.com/flash" xmlns:xlink="http://www.w3.org/1999/xlink" ffdec:objectType="shape" height="17.0px" width="12.0px" xmlns="http://www.w3.org/2000/svg">
  <g transform="matrix(1.0, 0.0, 0.0, 1.0, 6.0, 8.5)">
    <path d="M 2.0 -6.0 L 1.62 -4.82 L 0.62 -4.1 L -0.62 -4.1 L -1.62 -4.82 L -2.0 -6.0 L -1.62 -7.18 L -0.62 -7.9 L 0.62 -7.9 L 1.62 -7.18 Z M 1.0 -6.0 L 0.71 -5.29 L 0.0 -5.0 L -0.71 -5.29 L -1.0 -6.0 L -0.71 -6.71 L -0.0 -7.0 L 0.71 -6.71 Z M -0.75 -4 L 0.75 -4 L 0.75 5 L -0.75 5 Z M -4 -2 L 4 -2 L 4 -0.75 L -4 -0.75 Z M -5 6 L -4 4.5 L -0.75 4.5 L -0.75 6 L -2.5 7 Z M 5 6 L 4 4.5 L 0.75 4.5 L 0.75 6 L 2.5 7 Z" fill="#ffffff" fill-rule="evenodd" stroke="none"/>
  </g>
</svg>
