<?xml version="1.0" encoding="UTF-8" standalone="no"?>
<svg xmlns:ffdec="https://www.free-decompiler.com/flash" xmlns:xlink="http://www.w3.org/1999/xlink" ffdec:objectType="shape" height="19.0px" width="14.0px" xmlns="http://www.w3.org/2000/svg">
  <g transform="matrix(1.0, 0.0, 0.0, 1.0, 7.0, 9.5)">
    <path d="M -5 -8 L 5 -8 L 5 8 L -5 8 Z M -3.5 -6 L -1.5 -6 L -1.5 -4.5 L -3.5 -4.5 Z M 1.5 -6 L 3.5 -6 L 3.5 -4.5 L 1.5 -4.5 Z M -3.5 -3 L -1.5 -3 L -1.5 -1.5 L -3.5 -1.5 Z M 1.5 -3 L 3.5 -3 L 3.5 -1.5 L 1.5 -1.5 Z M -3.5 0 L -1.5 0 L -1.5 1.5 L -3.5 1.5 Z M 1.5 0 L 3.5 0 L 3.5 1.5 L 1.5 1.5 Z M -3.5 3 L -1.5 3 L -1.5 4.5 L -3.5 4.5 Z M 1.5 3 L 3.5 3 L 3.5 4.5 L 1.5 4.5 Z M -1.5 5.5 L 1.5 5.5 L 1.5 8 L -1.5 8 Z M -6 8 L 6 8 L 6 9 L -6 9 Z" fill="#ffffff" fill-rule="evenodd" stroke="none"/>
  </g>
</svg>
